<svg xmlns="http://www.w3.org/2000/svg" width="720" height="900" viewBox="0 0 720 900">
  <rect width="720" height="900" fill="#2d2d30"/>
  <g stroke="#b9b9c0" stroke-width="2" fill="none" opacity=".42">
    <path d="M92 132h536v92H92z"/>
    <path d="M92 286h240v154H92z"/>
    <path d="M388 286h240v154H388z"/>
    <path d="M92 512h536v180H92z"/>
    <path d="M132 172h110M282 172h190M132 342h150M428 342h120M132 574h430M132 626h312"/>
    <path d="M332 363h56"/>
    <path d="M360 224v62M360 440v72"/>
  </g>
  <g stroke="#e4e4e7" stroke-width="1" opacity=".18">
    <path d="M0 75h720M0 150h720M0 225h720M0 300h720M0 375h720M0 450h720M0 525h720M0 600h720M0 675h720M0 750h720M0 825h720"/>
    <path d="M72 0v900M144 0v900M216 0v900M288 0v900M360 0v900M432 0v900M504 0v900M576 0v900M648 0v900"/>
  </g>
  <g fill="#e4e4e7" opacity=".5" font-family="monospace" font-size="22">
    <text x="92" y="82">BRIEF GENERATION PIPELINE</text>
    <text x="92" y="804">CAMPAIGN / CHANNEL / REVIEW</text>
  </g>
</svg>
